<?xml version="1.0" encoding="utf-8"?>
<!-- Generator: Adobe Illustrator 16.0.4, SVG Export Plug-In . SVG Version: 6.00 Build 0)  -->
<!DOCTYPE svg PUBLIC "-//W3C//DTD SVG 1.1//EN" "http://www.w3.org/Graphics/SVG/1.1/DTD/svg11.dtd">
<svg version="1.1" id="Layer_1" xmlns="http://www.w3.org/2000/svg" xmlns:xlink="http://www.w3.org/1999/xlink" x="0px" y="0px"
	 width="300px" height="53px" viewBox="0 0 300 53" enable-background="new 0 0 300 53" xml:space="preserve">
<g>
	<path fill="#FFFFFF" d="M272.75,36.667c-2.895,0-5.25-2.354-5.25-5.25s2.355-5.25,5.25-5.25c2.896,0,5.25,2.354,5.25,5.25
		S275.645,36.667,272.75,36.667z"/>
	<path fill="#AAAAAA" d="M272.75,27.167c2.35,0,4.25,1.903,4.25,4.25s-1.9,4.25-4.25,4.25c-2.348,0-4.25-1.903-4.25-4.25
		S270.402,27.167,272.75,27.167 M272.75,25.167c-3.443,0-6.25,2.804-6.25,6.25s2.807,6.25,6.25,6.25c3.446,0,6.25-2.804,6.25-6.25
		S276.195,25.167,272.75,25.167L272.75,25.167z"/>
</g>
<g>
	<g>
		<path fill="#231F20" d="M98.851,1.258h4.458v1.449h-2.529v1.67h2.249v1.449h-2.249v2.918h-1.929V1.258z"/>
		<path fill="#231F20" d="M106.569,8.294c-0.27,0.32-0.63,0.57-1.219,0.57c-1.25,0-1.649-0.97-1.649-1.72
			c0-0.969,0.65-1.738,1.829-1.738c0.45,0,0.79,0.12,1.04,0.31v-0.24c0-0.709-0.48-0.879-1.049-0.879c-0.42,0-0.89,0.13-1.2,0.29
			l-0.36-1.279c0.55-0.271,1.14-0.42,1.969-0.42c1.799,0,2.449,0.85,2.449,2.198v3.358h-1.809L106.569,8.294L106.569,8.294z
			 M106.569,7.525V6.606c-0.17-0.11-0.36-0.18-0.57-0.18c-0.34,0-0.6,0.21-0.6,0.64s0.26,0.64,0.6,0.64
			C106.219,7.706,106.409,7.635,106.569,7.525z"/>
		<path fill="#231F20" d="M109.45,6.916v-2.29h-0.57V3.358h0.57v-1.69h1.809v1.689h1.02v1.269h-1.02v2.169
			c0,0.51,0.3,0.65,0.61,0.65c0.16,0,0.28-0.03,0.41-0.07v1.35c-0.18,0.039-0.33,0.09-0.82,0.09
			C110.23,8.815,109.45,8.225,109.45,6.916z"/>
		<path fill="#231F20" d="M115.609,8.294c-0.27,0.32-0.63,0.57-1.219,0.57c-1.25,0-1.649-0.97-1.649-1.72
			c0-0.969,0.65-1.738,1.829-1.738c0.45,0,0.79,0.12,1.04,0.31v-0.24c0-0.709-0.48-0.879-1.049-0.879c-0.42,0-0.89,0.13-1.2,0.29
			L113,3.608c0.55-0.271,1.14-0.42,1.969-0.42c1.799,0,2.449,0.85,2.449,2.198v3.358h-1.809V8.294z M115.609,7.525V6.606
			c-0.17-0.11-0.36-0.18-0.57-0.18c-0.34,0-0.6,0.21-0.6,0.64s0.26,0.64,0.6,0.64C115.259,7.706,115.449,7.635,115.609,7.525z"/>
		<path fill="#231F20" d="M118.35,0.958h1.809v7.786h-1.809V0.958z"/>
		<path fill="#231F20" d="M125.679,8.895c-1.489,0-2.809-0.979-2.809-2.809s1.319-2.898,2.809-2.898
			c1.499,0,2.818,1.069,2.818,2.898S127.178,8.895,125.679,8.895z M125.679,7.485c0.51,0,0.989-0.35,0.989-1.419
			c0-1.06-0.479-1.469-0.989-1.469c-0.49,0-0.97,0.409-0.979,1.469C124.689,7.135,125.189,7.485,125.679,7.485z"/>
		<path fill="#231F20" d="M130.959,8.175v2.469h-1.809V3.358h1.809v0.51c0.32-0.37,0.84-0.68,1.479-0.68
			c1.319,0,2.278,0.89,2.278,2.809c0,1.818-1.039,2.878-2.309,2.878C131.739,8.875,131.259,8.584,130.959,8.175z M132.888,5.997
			c0-1.07-0.56-1.39-1.03-1.39c-0.34,0-0.669,0.1-0.899,0.37v2.129c0.24,0.249,0.55,0.35,0.899,0.35
			C132.328,7.456,132.888,7.066,132.888,5.997z"/>
		<path fill="#231F20" d="M136.289,0.989c0.55,0,0.97,0.39,0.97,0.949c0,0.561-0.42,0.96-0.97,0.96c-0.54,0-0.969-0.399-0.969-0.96
			C135.32,1.378,135.75,0.989,136.289,0.989z M135.379,3.358h1.809v5.387h-1.809V3.358z"/>
		<path fill="#231F20" d="M140.658,8.895c-1.489,0-2.809-0.979-2.809-2.809s1.319-2.898,2.809-2.898
			c1.499,0,2.818,1.069,2.818,2.898S142.157,8.895,140.658,8.895z M140.658,7.485c0.51,0,0.989-0.35,0.989-1.419
			c0-1.06-0.479-1.469-0.989-1.469c-0.49,0-0.97,0.409-0.979,1.469C139.669,7.135,140.168,7.485,140.658,7.485z"/>
		<path fill="#231F20" d="M145.039,0.989c0.55,0,0.97,0.39,0.97,0.949c0,0.561-0.42,0.96-0.97,0.96c-0.54,0-0.969-0.399-0.969-0.96
			C144.07,1.378,144.5,0.989,145.039,0.989z M144.129,3.358h1.809v5.387h-1.809V3.358z"/>
		<path fill="#231F20" d="M150.357,8.195c-0.319,0.37-0.839,0.68-1.479,0.68c-1.319,0-2.279-0.89-2.279-2.809
			c0-1.818,1.04-2.878,2.309-2.878c0.669,0,1.149,0.289,1.449,0.699V0.958h1.809v7.786h-1.809V8.195z M150.357,7.085V4.957
			c-0.24-0.25-0.549-0.35-0.899-0.35c-0.47,0-1.029,0.39-1.029,1.459s0.56,1.39,1.029,1.39
			C149.798,7.456,150.128,7.355,150.357,7.085z"/>
		<path fill="#231F20" d="M157.648,8.895c-1.489,0-2.812-0.979-2.812-2.809s1.319-2.898,2.812-2.898
			c1.498,0,2.815,1.069,2.815,2.898S159.146,8.895,157.648,8.895z M157.648,7.485c0.51,0,0.986-0.35,0.986-1.419
			c0-1.06-0.479-1.469-0.986-1.469c-0.49,0-0.969,0.409-0.979,1.469C156.659,7.135,157.158,7.485,157.648,7.485z"/>
		<path fill="#231F20" d="M160.391,3.358h1.838l1.041,2.868l1.039-2.868h1.619l-2.089,5.446h-1.37L160.391,3.358z"/>
		<path fill="#231F20" d="M168.898,8.844c-1.67,0-3.039-0.799-3.039-2.858c0-1.789,1.25-2.798,2.699-2.798
			c1.389,0,2.389,0.85,2.389,2.548v0.76h-3.229c0.13,0.64,0.56,0.939,1.439,0.939c0.52,0,0.948-0.149,1.368-0.319l0.271,1.289
			C170.396,8.655,169.677,8.844,168.898,8.844z M167.708,5.386h1.549c-0.021-0.59-0.239-0.919-0.72-0.919
			C168.02,4.467,167.789,4.836,167.708,5.386z"/>
		<path fill="#231F20" d="M171.609,8.745V3.358h1.809v1.009c0.33-0.539,0.99-1.069,1.77-1.089v1.789c-0.459-0.05-1.42,0-1.77,0.439
			v3.238L171.609,8.745L171.609,8.745z"/>
		<path fill="#231F20" d="M179.229,8.195c-0.318,0.37-0.84,0.68-1.479,0.68c-1.318,0-2.279-0.89-2.279-2.809
			c0-1.818,1.04-2.878,2.312-2.878c0.669,0,1.147,0.289,1.448,0.699V0.958h1.81v7.786h-1.81V8.195H179.229z M179.229,7.085V4.957
			c-0.238-0.25-0.551-0.35-0.898-0.35c-0.473,0-1.029,0.39-1.029,1.459s0.562,1.39,1.029,1.39
			C178.667,7.456,178.998,7.355,179.229,7.085z"/>
		<path fill="#231F20" d="M184.498,8.895c-1.489,0-2.809-0.979-2.809-2.809s1.316-2.898,2.809-2.898
			c1.499,0,2.818,1.069,2.818,2.898S185.997,8.895,184.498,8.895z M184.498,7.485c0.51,0,0.988-0.35,0.988-1.419
			c0-1.06-0.479-1.469-0.988-1.469c-0.49,0-0.969,0.409-0.979,1.469C183.508,7.135,184.008,7.485,184.498,7.485z"/>
		<path fill="#231F20" d="M189.988,4.507c-0.37,0-0.66,0.079-0.66,0.35c0,0.39,0.89,0.34,1.639,0.709
			c0.551,0.271,0.84,0.7,0.84,1.449c0,1.22-0.91,1.859-2.26,1.859c-0.949,0-1.509-0.18-1.898-0.399l0.359-1.26
			c0.381,0.18,0.811,0.35,1.379,0.35c0.521,0,0.74-0.159,0.74-0.39c0-0.42-1.148-0.319-1.839-0.869
			c-0.34-0.271-0.54-0.689-0.54-1.27c0-1.199,0.859-1.789,2.139-1.789c0.84,0,1.439,0.17,1.789,0.34l-0.34,1.229
			C191.077,4.677,190.486,4.507,189.988,4.507z"/>
		<path fill="#231F20" d="M195.247,8.844c-1.669,0-3.039-0.799-3.039-2.858c0-1.789,1.25-2.798,2.699-2.798
			c1.389,0,2.389,0.85,2.389,2.548v0.76h-3.229c0.133,0.64,0.562,0.939,1.439,0.939c0.52,0,0.949-0.149,1.369-0.319l0.27,1.289
			C196.746,8.655,196.025,8.844,195.247,8.844z M194.059,5.386h1.549c-0.021-0.59-0.238-0.919-0.721-0.919
			C194.367,4.467,194.139,4.836,194.059,5.386z"/>
		<path fill="#231F20" d="M199.979,4.507c-0.371,0-0.66,0.079-0.66,0.35c0,0.39,0.892,0.34,1.641,0.709
			c0.55,0.271,0.839,0.7,0.839,1.449c0,1.22-0.907,1.859-2.259,1.859c-0.949,0-1.512-0.18-1.896-0.399L198,7.215
			c0.38,0.18,0.812,0.35,1.379,0.35c0.521,0,0.74-0.159,0.74-0.39c0-0.42-1.148-0.319-1.842-0.869
			c-0.34-0.271-0.537-0.689-0.537-1.27c0-1.199,0.857-1.789,2.139-1.789c0.84,0,1.438,0.17,1.789,0.34l-0.34,1.229
			C201.066,4.677,200.479,4.507,199.979,4.507z"/>
	</g>
</g>
<g>
	<g>
		<path fill="#666666" d="M103.518,44.574c-0.621,0-1.053,0.297-1.053,0.854c0,0.551,0.558,0.774,1.306,1.1
			c0.882,0.389,1.539,0.767,1.539,1.783c0,1.15-0.81,1.826-2.025,1.826c-0.846,0-1.396-0.197-1.828-0.484l0.252-0.702
			c0.432,0.278,0.892,0.468,1.558,0.468c0.747,0,1.215-0.324,1.215-1.008c0-0.666-0.486-0.855-1.341-1.217
			c-0.846-0.358-1.485-0.781-1.485-1.719c0-0.979,0.729-1.61,1.891-1.61c0.711,0,1.215,0.151,1.584,0.358l-0.225,0.686
			C104.589,44.718,104.094,44.574,103.518,44.574z"/>
		<path fill="#666666" d="M108.477,50.109c-1.359,0-2.287-0.848-2.287-2.313c0-1.458,0.99-2.269,2.007-2.269
			c1.107,0,1.836,0.729,1.836,2.104v0.324h-2.998c0.054,0.955,0.549,1.483,1.53,1.483c0.495,0,0.837-0.09,1.197-0.24l0.144,0.609
			C109.593,49.984,109.062,50.109,108.477,50.109z M107.055,47.365h2.196c-0.054-0.874-0.459-1.225-1.071-1.225
			C107.622,46.141,107.171,46.581,107.055,47.365z"/>
		<path fill="#666666" d="M111.042,43.665h0.837v6.365h-0.837V43.665z"/>
		<path fill="#666666" d="M115.173,50.109c-1.359,0-2.287-0.848-2.287-2.313c0-1.458,0.99-2.269,2.007-2.269
			c1.107,0,1.836,0.729,1.836,2.104v0.324h-2.998c0.054,0.955,0.549,1.483,1.53,1.483c0.495,0,0.837-0.09,1.197-0.24l0.144,0.609
			C116.289,49.984,115.758,50.109,115.173,50.109z M113.75,47.365h2.196c-0.054-0.874-0.459-1.225-1.071-1.225
			C114.317,46.141,113.867,46.581,113.75,47.365z"/>
		<path fill="#666666" d="M120.951,49.831c-0.351,0.188-0.81,0.278-1.323,0.278c-1.233,0-2.224-0.773-2.224-2.241
			c0-1.478,1.044-2.306,2.277-2.306c0.522,0,0.945,0.1,1.278,0.262l-0.207,0.666c-0.243-0.135-0.594-0.243-1.035-0.243
			c-0.846,0-1.467,0.594-1.467,1.612c0,0.998,0.567,1.563,1.449,1.563c0.396,0,0.792-0.09,1.062-0.231L120.951,49.831z"/>
		<path fill="#666666" d="M122.048,48.67v-2.368h-0.558v-0.639h0.558v-1.324h0.828v1.324h1.044v0.639h-1.044v2.313
			c0,0.639,0.216,0.811,0.63,0.811c0.153,0,0.297-0.027,0.414-0.062v0.639c-0.144,0.036-0.288,0.072-0.567,0.072
			C122.534,50.074,122.048,49.66,122.048,48.67z"/>
		<path fill="#666666" d="M129.086,49.598c-0.234,0.278-0.603,0.53-1.143,0.53c-0.855,0-1.45-0.576-1.45-1.44
			c0-0.892,0.685-1.414,1.567-1.414c0.459,0,0.792,0.138,1.026,0.334v-0.467c0-0.721-0.405-0.955-1.053-0.955
			c-0.432,0-0.81,0.125-1.071,0.252l-0.18-0.595c0.36-0.18,0.784-0.315,1.396-0.315c1.18,0,1.738,0.541,1.738,1.541v2.964h-0.829
			L129.086,49.598L129.086,49.598z M129.086,49.12v-0.981c-0.216-0.18-0.513-0.306-0.864-0.306c-0.522,0-0.927,0.243-0.927,0.828
			c0,0.594,0.378,0.892,0.874,0.892C128.609,49.552,128.871,49.363,129.086,49.12z"/>
		<path fill="#666666" d="M133.811,49.507v0.522h-0.828v-6.365h0.828v2.575c0.297-0.369,0.801-0.712,1.396-0.712
			c1.081,0,1.917,0.729,1.917,2.27c0,1.45-0.909,2.35-1.962,2.35C134.541,50.146,134.09,49.84,133.811,49.507z M136.296,47.796
			c0-1.144-0.621-1.61-1.287-1.61c-0.495,0-0.945,0.278-1.198,0.629v2.125c0.271,0.315,0.648,0.531,1.152,0.531
			C135.648,49.471,136.296,48.932,136.296,47.796z"/>
		<path fill="#666666" d="M140.841,49.408c-0.288,0.414-0.72,0.756-1.359,0.756c-0.91,0-1.423-0.531-1.423-1.531v-2.971h0.829v2.881
			c0,0.711,0.288,0.963,0.864,0.963c0.423,0,0.828-0.271,1.089-0.656v-3.188h0.828v4.365h-0.828V49.408z"/>
		<path fill="#666666" d="M143.738,49.507v0.522h-0.828v-6.365h0.828v2.575c0.297-0.369,0.801-0.712,1.396-0.712
			c1.081,0,1.917,0.729,1.917,2.27c0,1.45-0.909,2.35-1.962,2.35C144.467,50.146,144.017,49.84,143.738,49.507z M146.223,47.796
			c0-1.144-0.621-1.61-1.287-1.61c-0.495,0-0.945,0.278-1.198,0.629v2.125c0.271,0.315,0.648,0.531,1.152,0.531
			C145.575,49.471,146.223,48.932,146.223,47.796z"/>
		<path fill="#666666" d="M148.85,49.507v0.522h-0.828v-6.365h0.828v2.575c0.297-0.369,0.801-0.712,1.396-0.712
			c1.081,0,1.917,0.729,1.917,2.27c0,1.45-0.909,2.35-1.962,2.35C149.579,50.146,149.129,49.84,148.85,49.507z M151.334,47.796
			c0-1.144-0.621-1.61-1.287-1.61c-0.495,0-0.945,0.278-1.198,0.629v2.125c0.271,0.315,0.648,0.531,1.152,0.531
			C150.688,49.471,151.334,48.932,151.334,47.796z"/>
		<path fill="#666666" d="M153.188,43.665h0.838v6.365h-0.838V43.665z"/>
		<path fill="#666666" d="M157.318,50.109c-1.358,0-2.286-0.848-2.286-2.313c0-1.458,0.989-2.269,2.007-2.269
			c1.107,0,1.836,0.729,1.836,2.104v0.324h-2.998c0.055,0.955,0.549,1.483,1.53,1.483c0.495,0,0.837-0.09,1.196-0.24l0.145,0.609
			C158.436,49.984,157.904,50.109,157.318,50.109z M155.896,47.365h2.193c-0.054-0.874-0.459-1.225-1.068-1.225
			C156.463,46.141,156.014,46.581,155.896,47.365z"/>
		<path fill="#666666" d="M161.891,46.302h-0.565v-0.639h0.565v-0.45c0-1.134,0.701-1.576,1.479-1.576
			c0.195,0,0.333,0.01,0.479,0.036v0.64c-0.117-0.019-0.254-0.025-0.353-0.025c-0.44,0-0.767,0.225-0.767,0.927v0.45h1.115v0.639
			h-1.115v3.729h-0.838V46.302L161.891,46.302z"/>
		<path fill="#666666" d="M166.518,50.155c-1.125,0-2.179-0.819-2.179-2.287c0-1.458,1.054-2.341,2.179-2.341
			c1.146,0,2.178,0.882,2.178,2.341C168.695,49.336,167.66,50.155,166.518,50.155z M166.518,49.489c0.703,0,1.342-0.558,1.342-1.621
			c0-1.071-0.631-1.685-1.342-1.685c-0.691,0-1.332,0.61-1.332,1.685C165.186,48.932,165.824,49.489,166.518,49.489z"/>
		<path fill="#666666" d="M169.657,45.663h0.827v0.873c0.271-0.45,0.812-0.927,1.514-0.937v0.811
			c-0.639-0.036-1.242,0.314-1.514,0.756v2.863h-0.827V45.663z"/>
		<path fill="#666666" d="M177.812,49.426c-0.297,0.369-0.804,0.721-1.396,0.721c-1.08,0-1.926-0.729-1.926-2.27
			c0-1.458,0.927-2.35,1.98-2.35c0.618,0,1.062,0.297,1.34,0.63v-2.494h0.838v6.364h-0.838v-0.604L177.812,49.426L177.812,49.426z
			 M177.812,48.85v-2.134c-0.271-0.306-0.648-0.53-1.152-0.53c-0.676,0-1.323,0.56-1.323,1.691c0,1.135,0.612,1.594,1.287,1.594
			C177.119,49.471,177.568,49.191,177.812,48.85z"/>
		<path fill="#666666" d="M181.889,50.109c-1.356,0-2.287-0.848-2.287-2.313c0-1.458,0.99-2.269,2.008-2.269
			c1.106,0,1.836,0.729,1.836,2.104v0.324h-2.996c0.054,0.955,0.549,1.483,1.527,1.483c0.496,0,0.838-0.09,1.197-0.24l0.145,0.609
			C183.005,49.984,182.475,50.109,181.889,50.109z M180.466,47.365h2.196c-0.055-0.874-0.459-1.225-1.071-1.225
			C181.033,46.141,180.583,46.581,180.466,47.365z"/>
		<path fill="#666666" d="M184.552,48.67v-2.368h-0.558v-0.639h0.558v-1.324h0.828v1.324h1.044v0.639h-1.044v2.313
			c0,0.639,0.216,0.811,0.63,0.811c0.153,0,0.297-0.027,0.414-0.062v0.639c-0.144,0.036-0.287,0.072-0.566,0.072
			C185.038,50.074,184.552,49.66,184.552,48.67z"/>
		<path fill="#666666" d="M189.691,49.598c-0.234,0.278-0.604,0.53-1.146,0.53c-0.854,0-1.448-0.576-1.448-1.44
			c0-0.892,0.686-1.414,1.565-1.414c0.459,0,0.792,0.138,1.024,0.334v-0.467c0-0.721-0.403-0.955-1.053-0.955
			c-0.433,0-0.811,0.125-1.072,0.252l-0.18-0.595c0.36-0.18,0.783-0.315,1.396-0.315c1.18,0,1.738,0.541,1.738,1.541v2.964h-0.83
			v-0.435H189.691z M189.691,49.12v-0.981c-0.217-0.18-0.516-0.306-0.864-0.306c-0.522,0-0.927,0.243-0.927,0.828
			c0,0.594,0.377,0.892,0.873,0.892C189.214,49.552,189.477,49.363,189.691,49.12z"/>
		<path fill="#666666" d="M192.139,43.781c0.262,0,0.459,0.188,0.459,0.468c0,0.278-0.197,0.468-0.459,0.468
			c-0.261,0-0.468-0.189-0.468-0.468C191.671,43.97,191.878,43.781,192.139,43.781z M191.716,45.663h0.837v4.366h-0.837V45.663z"/>
		<path fill="#666666" d="M193.885,43.665h0.838v6.365h-0.838V43.665z"/>
		<path fill="#666666" d="M197.287,46.221c-0.486,0-0.783,0.135-0.783,0.549c0,0.604,0.882,0.576,1.559,0.909
			c0.389,0.198,0.641,0.486,0.641,1.08c0,0.829-0.621,1.359-1.657,1.359c-0.711,0-1.125-0.136-1.438-0.297l0.188-0.648
			c0.309,0.153,0.666,0.288,1.188,0.288c0.687,0,0.91-0.279,0.91-0.648c0-0.639-0.944-0.594-1.584-0.979
			c-0.332-0.198-0.565-0.516-0.565-1.008c0-0.812,0.604-1.251,1.513-1.251c0.621,0,1.062,0.114,1.342,0.231l-0.181,0.648
			C198.169,46.338,197.729,46.221,197.287,46.221z"/>
	</g>
</g>
<g>
	<path d="M13.321,17.099h1.432l0.837,3.718l1.107-3.754h0.882l1.107,3.718l0.837-3.682h1.242l-1.575,6.112h-0.981l-1.162-3.709
		l-1.17,3.709h-0.972L13.321,17.099z"/>
	<path d="M21.547,23.167v-6.32h1.359v2.458c0.279-0.351,0.693-0.639,1.296-0.639c1.017,0,1.404,0.675,1.404,1.593v2.908h-1.351
		v-2.755c0-0.459-0.189-0.675-0.603-0.675c-0.315,0-0.567,0.18-0.747,0.468v2.962H21.547z"/>
	<path d="M27.307,16.775c0.414,0,0.729,0.297,0.729,0.711c0,0.432-0.315,0.729-0.729,0.729c-0.405,0-0.729-0.298-0.729-0.729
		C26.578,17.072,26.902,16.775,27.307,16.775z M26.632,18.8h1.351v4.366h-1.351V18.8z"/>
	<path d="M29.233,21.708v-1.945h-0.486V18.8h0.486v-1.359h1.359V18.8h0.864v0.963h-0.864v1.854c0,0.45,0.234,0.576,0.513,0.576
		c0.135,0,0.234-0.026,0.351-0.054v1.009c-0.144,0.035-0.279,0.071-0.648,0.071C29.836,23.22,29.233,22.752,29.233,21.708z"/>
	<path d="M34.498,23.248c-1.359,0-2.431-0.685-2.431-2.313c0-1.459,1.008-2.269,2.152-2.269c1.125,0,1.917,0.692,1.917,2.07v0.567
		h-2.683c0.099,0.594,0.468,0.882,1.233,0.882c0.441,0,0.783-0.117,1.125-0.252l0.208,0.963
		C35.696,23.103,35.128,23.248,34.498,23.248z M33.463,20.448h1.414c-0.018-0.54-0.243-0.819-0.675-0.819
		C33.76,19.628,33.535,19.953,33.463,20.448z"/>
</g>
<g>
	<g>
		<path d="M60.683,17.099h2.169c1.099,0,1.972,0.504,1.972,1.638c0,0.621-0.342,1.023-0.873,1.252
			c0.684,0.225,1.125,0.684,1.125,1.422c0,1.116-0.963,1.756-2.071,1.756h-2.323L60.683,17.099L60.683,17.099z M62.124,18.062v1.513
			H62.7c0.477,0,0.774-0.262,0.774-0.774c0-0.495-0.297-0.738-0.774-0.738L62.124,18.062L62.124,18.062z M62.124,20.529v1.675h0.693
			c0.495,0,0.846-0.324,0.846-0.864c0-0.541-0.351-0.811-0.837-0.811H62.124z"/>
		<path d="M66.03,16.846h1.35v6.32h-1.35V16.846z"/>
		<path d="M70.602,22.789c-0.225,0.27-0.531,0.477-1.008,0.477c-0.99,0-1.359-0.747-1.359-1.404c0-0.801,0.558-1.413,1.495-1.413
			c0.378,0,0.666,0.108,0.873,0.261v-0.233c0-0.595-0.387-0.757-0.882-0.757c-0.351,0-0.738,0.108-0.99,0.243L68.46,18.99
			c0.432-0.207,0.9-0.323,1.566-0.323c1.404,0,1.936,0.657,1.936,1.737v2.764h-1.359L70.602,22.789L70.602,22.789z M70.602,22.204
			v-0.802c-0.153-0.099-0.333-0.171-0.531-0.171c-0.315,0-0.558,0.189-0.558,0.576c0,0.387,0.234,0.585,0.549,0.585
			C70.278,22.392,70.458,22.311,70.602,22.204z"/>
		<path d="M76.389,22.968c-0.342,0.189-0.811,0.279-1.306,0.279c-1.242,0-2.323-0.747-2.323-2.241c0-1.495,1.117-2.305,2.377-2.305
			c0.531,0,0.927,0.09,1.251,0.233l-0.342,1.054c-0.171-0.09-0.468-0.189-0.828-0.189c-0.621,0-1.089,0.414-1.089,1.188
			c0,0.756,0.441,1.161,1.089,1.161c0.324,0,0.675-0.081,0.864-0.18L76.389,22.968z"/>
		<path d="M77.171,23.167v-6.32h1.359v4.016l1.414-2.062h1.323l-1.458,2.07l1.558,2.296h-1.503l-1.333-2.008v2.008H77.171z"/>
	</g>
	<g>
		<circle fill="#FFA300" stroke="#FFFFFF" cx="65.568" cy="31.417" r="4.25"/>
	</g>
</g>
<circle fill="#008FD5" stroke="#FFFFFF" cx="4.25" cy="31.417" r="4.25"/>
<g>
	<g>
		<path d="M168.471,23.167l0.611-6.067h1.18l1.439,3.961l1.495-3.961h1.054l0.62,6.067h-1.387l-0.252-3.286l-1.278,3.286h-0.746
			l-1.226-3.304l-0.278,3.304H168.471z"/>
		<path d="M177.877,22.789c-0.227,0.27-0.531,0.477-1.009,0.477c-0.989,0-1.358-0.747-1.358-1.404c0-0.801,0.558-1.413,1.494-1.413
			c0.379,0,0.666,0.108,0.873,0.261v-0.233c0-0.595-0.387-0.757-0.882-0.757c-0.351,0-0.737,0.108-0.989,0.243l-0.271-0.973
			c0.434-0.207,0.9-0.323,1.566-0.323c1.403,0,1.936,0.657,1.936,1.737v2.764h-1.357v-0.379H177.877z M177.877,22.204v-0.802
			c-0.154-0.099-0.334-0.171-0.531-0.171c-0.315,0-0.559,0.189-0.559,0.576c0,0.387,0.234,0.585,0.549,0.585
			C177.551,22.392,177.732,22.311,177.877,22.204z"/>
		<path d="M180.288,16.846h1.351v6.32h-1.351V16.846z"/>
		<path d="M184.934,23.248c-1.359,0-2.432-0.685-2.432-2.313c0-1.459,1.008-2.269,2.15-2.269c1.125,0,1.916,0.692,1.916,2.07v0.567
			h-2.682c0.099,0.594,0.468,0.882,1.231,0.882c0.441,0,0.783-0.117,1.125-0.252l0.208,0.963
			C186.131,23.103,185.562,23.248,184.934,23.248z M183.896,20.448h1.414c-0.018-0.54-0.242-0.819-0.676-0.819
			C184.193,19.628,183.969,19.953,183.896,20.448z"/>
	</g>
	<g>
		<circle stroke="#FFFFFF" cx="168.752" cy="31.417" r="4.25"/>
	</g>
</g>
<g>
	<g>
		<path d="M202.381,17.099h3.584v1.08h-2.145v1.485h1.918v1.089h-1.918v2.413h-1.439V17.099z"/>
		<path d="M208.924,23.248c-1.356,0-2.431-0.685-2.431-2.313c0-1.459,1.009-2.269,2.152-2.269c1.125,0,1.916,0.692,1.916,2.07v0.567
			h-2.683c0.099,0.594,0.467,0.882,1.231,0.882c0.44,0,0.783-0.117,1.125-0.252l0.207,0.963
			C210.123,23.103,209.555,23.248,208.924,23.248z M207.891,20.448h1.414c-0.021-0.54-0.244-0.819-0.676-0.819
			C208.188,19.628,207.963,19.953,207.891,20.448z"/>
		<path d="M211.391,23.167V18.8h1.356v0.504c0.253-0.351,0.604-0.639,1.206-0.639c0.576,0,0.98,0.225,1.172,0.756
			c0.26-0.396,0.655-0.756,1.342-0.756c0.953,0,1.387,0.684,1.387,1.603v2.898h-1.352V20.42c0-0.459-0.182-0.684-0.576-0.684
			c-0.271,0-0.47,0.135-0.631,0.359v3.07h-1.352V20.42c0-0.459-0.188-0.684-0.586-0.684c-0.252,0-0.449,0.117-0.611,0.324v3.105
			h-1.355V23.167z"/>
		<path d="M221.002,22.789c-0.225,0.27-0.531,0.477-1.008,0.477c-0.99,0-1.359-0.747-1.359-1.404c0-0.801,0.561-1.413,1.496-1.413
			c0.377,0,0.666,0.108,0.873,0.261v-0.233c0-0.595-0.388-0.757-0.883-0.757c-0.352,0-0.738,0.108-0.99,0.243l-0.27-0.973
			c0.432-0.207,0.898-0.323,1.564-0.323c1.403,0,1.938,0.657,1.938,1.737v2.764h-1.359v-0.379H221.002z M221.002,22.204v-0.802
			c-0.15-0.099-0.332-0.171-0.531-0.171c-0.312,0-0.558,0.189-0.558,0.576c0,0.387,0.233,0.585,0.55,0.585
			C220.678,22.392,220.857,22.311,221.002,22.204z"/>
		<path d="M223.414,16.846h1.35v6.32h-1.35V16.846z"/>
		<path d="M228.059,23.248c-1.359,0-2.432-0.685-2.432-2.313c0-1.459,1.008-2.269,2.15-2.269c1.125,0,1.918,0.692,1.918,2.07v0.567
			h-2.686c0.102,0.594,0.471,0.882,1.233,0.882c0.44,0,0.783-0.117,1.125-0.252l0.207,0.963
			C229.256,23.103,228.688,23.248,228.059,23.248z M227.023,20.448h1.414c-0.02-0.54-0.244-0.819-0.676-0.819
			C227.32,19.628,227.096,19.953,227.023,20.448z"/>
	</g>
	<g>
		<g>
			<circle stroke="#FFFFFF" cx="210.1" cy="31.417" r="4.25"/>
			<circle fill="#FFFFFF" cx="210.1" cy="31.417" r="1.401"/>
		</g>
	</g>
</g>
<g>
	<path d="M264.979,22.149c0.576,0,0.98-0.314,0.98-1.134v-3.916h1.323v3.79c0,1.539-0.907,2.403-2.377,2.403
		c-1.458,0-2.403-0.811-2.403-2.403v-3.79h1.451v3.916C263.953,21.861,264.377,22.149,264.979,22.149z"/>
	<path d="M268.361,23.167V18.8h1.359v0.504c0.277-0.351,0.693-0.639,1.297-0.639c1.018,0,1.402,0.675,1.402,1.593v2.908h-1.352
		v-2.755c0-0.459-0.188-0.675-0.604-0.675c-0.313,0-0.565,0.18-0.746,0.468v2.962L268.361,23.167L268.361,23.167z"/>
	<path d="M276.293,22.699c-0.271,0.306-0.703,0.576-1.227,0.576c-1.07,0-1.863-0.721-1.863-2.278c0-1.467,0.855-2.331,1.883-2.331
		c0.561,0,0.953,0.233,1.207,0.566v-2.386h1.367v6.32h-1.367V22.699L276.293,22.699z M276.293,21.852v-1.81
		c-0.209-0.216-0.484-0.315-0.803-0.315c-0.424,0-0.918,0.36-0.918,1.27s0.486,1.207,0.908,1.207
		C275.797,22.204,276.094,22.095,276.293,21.852z"/>
	<path d="M280.9,23.248c-1.359,0-2.434-0.685-2.434-2.313c0-1.459,1.01-2.269,2.152-2.269c1.125,0,1.918,0.692,1.918,2.07v0.567
		h-2.686c0.102,0.594,0.47,0.882,1.232,0.882c0.439,0,0.783-0.117,1.125-0.252l0.207,0.963
		C282.098,23.103,281.529,23.248,280.9,23.248z M279.864,20.448h1.413c-0.02-0.54-0.242-0.819-0.676-0.819
		C280.162,19.628,279.938,19.953,279.864,20.448z"/>
	<path d="M283.365,23.167V18.8h1.359v0.811c0.27-0.424,0.811-0.864,1.439-0.874v1.333c-0.414-0.036-1.152,0.062-1.439,0.423v2.674
		H283.365z"/>
	<path d="M288.441,22.887l0.322-1.044c0.279,0.162,0.648,0.306,1.217,0.306c0.564,0,0.918-0.306,0.918-0.765
		s-0.264-0.811-0.99-0.811h-0.324v-1.018h0.324c0.604,0,0.945-0.27,0.945-0.711c0-0.459-0.289-0.729-0.893-0.729
		c-0.404,0-0.729,0.108-1.025,0.279l-0.324-1.008c0.359-0.226,0.828-0.388,1.531-0.388c1.24,0,1.963,0.604,1.963,1.684
		c0,0.685-0.416,1.135-1.062,1.323c0.873,0.234,1.17,0.774,1.17,1.485c0,1.054-0.861,1.81-2.15,1.81
		C289.305,23.301,288.811,23.103,288.441,22.887z"/>
	<path d="M292.742,22.942l0.334-1.045c0.207,0.108,0.594,0.252,1.098,0.252c0.648,0,1.08-0.333,1.08-0.99
		c0-0.639-0.432-0.963-1.205-0.963c-0.414,0-0.641,0.062-0.818,0.117l-0.025-0.027l0.359-3.187h2.881v1.08h-1.872l-0.136,1.035
		c1.434,0,2.195,0.783,2.195,1.944c0,1.342-0.928,2.143-2.312,2.143C293.562,23.301,293.039,23.113,292.742,22.942z"/>
</g>
<g>
	<g>
		<path d="M93.977,22.149c0.576,0,0.981-0.314,0.981-1.134v-3.916h1.324v3.79c0,1.539-0.909,2.403-2.377,2.403
			c-1.458,0-2.404-0.811-2.404-2.403v-3.79h1.45v3.916C92.951,21.861,93.374,22.149,93.977,22.149z"/>
		<path d="M97.361,23.167V18.8h1.359v0.504c0.279-0.351,0.693-0.639,1.296-0.639c1.017,0,1.404,0.675,1.404,1.593v2.908h-1.35
			v-2.755c0-0.459-0.189-0.675-0.604-0.675c-0.315,0-0.567,0.18-0.747,0.468v2.962L97.361,23.167L97.361,23.167z"/>
		<path d="M102.436,23.167v-6.32h1.359v4.016l1.414-2.062h1.323l-1.458,2.07l1.558,2.296h-1.503l-1.333-2.008v2.008H102.436z"/>
		<path d="M107.297,23.167V18.8h1.359v0.504c0.279-0.351,0.693-0.639,1.296-0.639c1.017,0,1.404,0.675,1.404,1.593v2.908h-1.351
			v-2.755c0-0.459-0.189-0.675-0.603-0.675c-0.315,0-0.567,0.18-0.747,0.468v2.962L107.297,23.167L107.297,23.167z"/>
		<path d="M114.398,23.292c-1.197,0-2.26-0.811-2.26-2.277c0-1.485,1.062-2.35,2.26-2.35c1.207,0,2.269,0.864,2.269,2.35
			C116.666,22.482,115.604,23.292,114.398,23.292z M114.398,22.23c0.459,0,0.9-0.324,0.9-1.233c0-0.891-0.432-1.278-0.9-1.278
			c-0.45,0-0.882,0.388-0.891,1.278C113.507,21.906,113.948,22.23,114.398,22.23z"/>
		<path d="M116.917,18.8h1.306l0.621,2.313l0.918-2.367h0.621l0.9,2.35l0.639-2.296h1.134l-1.314,4.411h-0.792l-0.945-2.548
			l-1.018,2.548h-0.747L116.917,18.8z"/>
		<path d="M123.74,23.167V18.8h1.359v0.504c0.279-0.351,0.693-0.639,1.296-0.639c1.017,0,1.404,0.675,1.404,1.593v2.908h-1.35
			v-2.755c0-0.459-0.189-0.675-0.604-0.675c-0.315,0-0.567,0.18-0.747,0.468v2.962L123.74,23.167L123.74,23.167z"/>
	</g>
	<g>
		<circle fill="#CCCCCC" stroke="#FFFFFF" cx="106.59" cy="31.417" r="4.25"/>
	</g>
</g>
<line fill="none" stroke="#CCCCCC" stroke-width="0.5" x1="147.568" y1="17.667" x2="147.568" y2="36.333"/>
<line fill="none" stroke="#CCCCCC" stroke-width="0.5" x1="249.428" y1="17.667" x2="249.428" y2="36.333"/>
<g>
	<path fill="#666666" d="M10.348,34.033v-0.504l1.737-1.972c0.63-0.711,0.927-1.306,0.927-1.873c0-0.72-0.405-1.116-1.143-1.116
		c-0.594,0-0.937,0.181-1.243,0.378l-0.225-0.639c0.342-0.216,0.783-0.433,1.558-0.433c1.17,0,1.881,0.631,1.881,1.738
		c0,0.846-0.486,1.548-1.305,2.448l-1.179,1.306h2.502v0.666H10.348z"/>
	<path fill="#666666" d="M15.865,29.037l-1.206,1.035v-0.819l1.548-1.342h0.522v6.122h-0.864V29.037z"/>
	<path fill="#666666" d="M17.727,33.745l0.225-0.648c0.288,0.189,0.693,0.352,1.314,0.352c0.72,0,1.243-0.423,1.243-1.126
		c0-0.675-0.405-1.089-1.296-1.089h-0.324v-0.685h0.324c0.756,0,1.197-0.404,1.197-0.999c0-0.648-0.387-0.99-1.134-0.99
		c-0.468,0-0.829,0.144-1.125,0.324l-0.225-0.612c0.333-0.216,0.765-0.396,1.44-0.396c1.116,0,1.836,0.559,1.836,1.603
		c0,0.712-0.468,1.18-1.089,1.369c0.801,0.197,1.225,0.729,1.225,1.521c0,1.116-0.882,1.791-2.026,1.791
		C18.556,34.159,18.061,33.952,17.727,33.745z"/>
	<path fill="#666666" d="M27.304,33.43c-0.297,0.369-0.801,0.721-1.396,0.721c-1.08,0-1.926-0.729-1.926-2.269
		c0-1.459,0.927-2.35,1.98-2.35c0.621,0,1.062,0.297,1.341,0.63v-2.494h0.837v6.365h-0.837V33.43z M27.304,32.854v-2.133
		c-0.27-0.307-0.648-0.531-1.152-0.531c-0.675,0-1.323,0.558-1.323,1.692c0,1.134,0.612,1.593,1.287,1.593
		C26.611,33.475,27.061,33.196,27.304,32.854z"/>
	<path fill="#666666" d="M31.381,34.114c-1.359,0-2.287-0.847-2.287-2.313c0-1.459,0.99-2.269,2.007-2.269
		c1.107,0,1.836,0.729,1.836,2.106v0.324H29.94c0.054,0.954,0.549,1.485,1.53,1.485c0.495,0,0.837-0.09,1.197-0.243l0.144,0.612
		C32.497,33.988,31.966,34.114,31.381,34.114z M29.958,31.368h2.196c-0.054-0.873-0.459-1.224-1.071-1.224
		C30.525,30.145,30.075,30.585,29.958,31.368z"/>
	<path fill="#666666" d="M36.16,33.602c-0.234,0.278-0.603,0.53-1.143,0.53c-0.855,0-1.45-0.576-1.45-1.44
		c0-0.891,0.685-1.413,1.567-1.413c0.459,0,0.792,0.135,1.026,0.333v-0.468c0-0.721-0.405-0.954-1.053-0.954
		c-0.432,0-0.81,0.126-1.071,0.252l-0.18-0.595c0.36-0.18,0.784-0.314,1.396-0.314c1.18,0,1.738,0.54,1.738,1.539v2.962H36.16
		V33.602z M36.16,33.124v-0.981c-0.216-0.18-0.513-0.306-0.864-0.306c-0.522,0-0.927,0.243-0.927,0.828
		c0,0.594,0.378,0.891,0.874,0.891C35.683,33.556,35.944,33.367,36.16,33.124z"/>
	<path fill="#666666" d="M38.311,32.674v-2.368h-0.559v-0.639h0.559v-1.323h0.828v1.323h1.044v0.639h-1.044v2.314
		c0,0.639,0.216,0.81,0.63,0.81c0.153,0,0.297-0.026,0.415-0.062v0.639c-0.144,0.036-0.288,0.072-0.567,0.072
		C38.796,34.078,38.311,33.664,38.311,32.674z"/>
	<path fill="#666666" d="M41.181,34.033v-6.365h0.828v2.62c0.306-0.414,0.774-0.756,1.414-0.756c0.945,0,1.422,0.549,1.422,1.539
		v2.962h-0.828v-2.872c0-0.702-0.315-0.972-0.891-0.972c-0.441,0-0.855,0.288-1.117,0.702v3.142H41.181z"/>
	<path fill="#666666" d="M47.319,30.225c-0.486,0-0.783,0.136-0.783,0.55c0,0.603,0.882,0.576,1.558,0.909
		c0.387,0.198,0.639,0.486,0.639,1.08c0,0.828-0.621,1.359-1.657,1.359c-0.711,0-1.125-0.135-1.44-0.297l0.189-0.648
		c0.306,0.153,0.666,0.288,1.188,0.288c0.685,0,0.91-0.279,0.91-0.648c0-0.639-0.945-0.594-1.584-0.98
		c-0.333-0.198-0.567-0.514-0.567-1.009c0-0.811,0.603-1.251,1.513-1.251c0.621,0,1.062,0.117,1.341,0.233l-0.18,0.648
		C48.202,30.342,47.761,30.225,47.319,30.225z"/>
</g>
<g>
	<path fill="#666666" d="M71.848,34.033v-0.504l1.737-1.972c0.63-0.711,0.927-1.306,0.927-1.873c0-0.72-0.405-1.116-1.143-1.116
		c-0.594,0-0.937,0.181-1.243,0.378l-0.225-0.639c0.342-0.216,0.783-0.433,1.558-0.433c1.17,0,1.881,0.631,1.881,1.738
		c0,0.846-0.486,1.548-1.305,2.448l-1.179,1.306h2.502v0.666H71.848z"/>
	<path fill="#666666" d="M76.033,34.033v-0.504l1.737-1.972c0.63-0.711,0.927-1.306,0.927-1.873c0-0.72-0.405-1.116-1.143-1.116
		c-0.594,0-0.937,0.181-1.243,0.378l-0.225-0.639c0.342-0.216,0.783-0.433,1.558-0.433c1.17,0,1.881,0.631,1.881,1.738
		c0,0.846-0.486,1.548-1.305,2.448l-1.179,1.306h2.502v0.666H76.033z"/>
</g>
<g>
	<path fill="#666666" d="M114.68,29.037l-1.206,1.035v-0.819l1.548-1.342h0.522v6.122h-0.864V29.037z"/>
</g>
<g>
	<path fill="#666666" d="M175.666,29.037l-1.206,1.035v-0.819l1.548-1.342h0.522v6.122h-0.864V29.037z"/>
	<path fill="#666666" d="M178.555,33.988c0.918-0.585,1.98-1.477,2.296-2.8c-0.279,0.333-0.792,0.612-1.378,0.612
		c-0.953,0-1.764-0.657-1.764-1.882c0-1.261,0.828-2.07,1.998-2.07c1.27,0,2.062,0.945,2.062,2.557c0,1.846-1.288,3.115-2.08,3.628
		h-1.135V33.988z M180.94,30.576c0.009-0.072,0.009-0.135,0.009-0.207c0-1.206-0.477-1.863-1.251-1.863
		c-0.702,0-1.152,0.54-1.152,1.422c0,0.828,0.468,1.27,1.161,1.27C180.229,31.197,180.68,30.937,180.94,30.576z"/>
	<path fill="#666666" d="M184.981,34.159c-1.206,0-2.323-0.909-2.313-3.124c0.018-2.205,1.107-3.187,2.313-3.187
		c1.216,0,2.331,0.981,2.323,3.187C187.295,33.241,186.197,34.159,184.981,34.159z M184.981,33.475c0.819,0,1.432-0.765,1.432-2.448
		c0.009-1.692-0.612-2.494-1.432-2.494c-0.81,0-1.413,0.811-1.423,2.494C183.55,32.719,184.172,33.475,184.981,33.475z"/>
</g>
<g>
	<path fill="#666666" d="M218.998,32.665h-2.7v-0.54l2.358-4.159h1.162v4.042h0.792v0.657h-0.792v1.368h-0.82V32.665z
		 M218.998,28.613l-1.926,3.395h1.926V28.613z"/>
	<path fill="#666666" d="M221.365,31.594c0-1.846,1.287-3.133,2.26-3.628h1.008v0.045c-0.981,0.585-2.035,1.485-2.35,2.809
		c0.279-0.342,0.792-0.63,1.387-0.63c0.945,0,1.755,0.666,1.755,1.891c0,1.26-0.81,2.07-1.927,2.07
		C222.175,34.15,221.365,33.205,221.365,31.594z M224.597,32.07c0-0.837-0.478-1.27-1.161-1.27c-0.531,0-0.981,0.262-1.242,0.622
		c-0.01,0.071-0.01,0.135-0.01,0.207c0,1.206,0.496,1.863,1.279,1.863C224.164,33.493,224.597,32.944,224.597,32.07z"/>
</g>
<g>
	<path fill="#666666" d="M281.994,29.037l-1.206,1.035v-0.819l1.548-1.342h0.522v6.122h-0.864V29.037z"/>
	<path fill="#666666" d="M285.297,29.037l-1.206,1.035v-0.819l1.548-1.342h0.522v6.122h-0.864V29.037z"/>
	<path fill="#666666" d="M289.744,34.159c-1.207,0-2.323-0.909-2.314-3.124c0.018-2.205,1.107-3.187,2.314-3.187
		c1.215,0,2.331,0.981,2.322,3.187C292.057,33.241,290.959,34.159,289.744,34.159z M289.744,33.475c0.818,0,1.432-0.765,1.432-2.448
		c0.008-1.692-0.613-2.494-1.432-2.494c-0.811,0-1.414,0.811-1.423,2.494C288.312,32.719,288.934,33.475,289.744,33.475z"/>
</g>
</svg>
